# Blender 4.2.0
# www.blender.org
mtllib crate_3.mtl
o cratetall_crates_1
v -3.859133 8.715262 5.294562
v -5.292750 6.133543 5.294562
v 3.682303 -8.944194 5.294562
v -3.859133 8.715262 4.815581
v -3.859133 8.715262 5.294562
v 5.115920 -6.362475 5.294562
v -5.292750 6.133543 5.294562
v -5.292750 6.133543 4.815581
v 3.682303 -8.944194 4.815581
v 5.445073 6.400292 -5.264954
v 5.445074 8.893857 -3.780655
v 5.445074 -6.716921 4.887939
v 4.966093 6.400292 -5.264954
v 5.445073 6.400292 -5.264954
v 5.445074 -9.210486 3.403640
v 5.445074 8.893857 -3.780655
v 4.966093 8.893857 -3.780655
v 4.966093 -6.716921 4.887939
v -5.596694 6.400292 4.887939
v -5.596694 8.893857 3.403640
v -5.596694 -6.716921 -5.264953
v -5.117712 6.400292 4.887939
v -5.596694 6.400292 4.887939
v -5.596694 -9.210486 -3.780654
v -5.596694 8.893857 3.403640
v -5.117713 8.893857 3.403640
v -5.117713 -6.716921 -5.264953
v 3.707578 9.588039 4.887891
v 5.141176 9.588039 3.403573
v -3.833989 9.588039 -5.264905
v 3.707578 8.754924 4.887891
v 3.707578 9.588039 4.887891
v -5.267587 9.588039 -3.780587
v 5.141176 9.588039 3.403573
v 5.141176 8.754924 3.403573
v -3.833989 8.754924 -5.264905
v 3.707578 -9.870696 -5.264905
v 5.141176 -9.870696 -3.780587
v -3.833989 -9.870696 4.887891
v 3.707578 -9.037580 -5.264905
v 3.707578 -9.870696 -5.264905
v -5.267587 -9.870696 3.403573
v 5.141176 -9.870696 -3.780587
v 5.141176 -9.037580 -3.780587
v -3.833989 -9.037580 4.887891
v -3.859133 -9.031891 -5.747205
v -5.292750 -6.450172 -5.747205
v 3.682303 8.627565 -5.747205
v -3.859133 -9.031891 -5.268224
v -3.859133 -9.031891 -5.747205
v 5.115920 6.045846 -5.747205
v -5.292750 -6.450172 -5.747205
v -5.292750 -6.450172 -5.268224
v 3.682303 8.627565 -5.268225
v 4.250613 7.344934 5.048727
v -4.377023 7.344934 5.048727
v -4.377023 -7.661563 5.048727
v 5.215545 7.344934 -4.543842
v 5.215545 7.344934 4.083793
v 5.215545 -7.661563 4.083793
v -4.377023 7.344934 -5.508775
v 4.250613 7.344934 -5.508775
v 4.250613 -7.661563 -5.508775
v -5.341956 7.344934 4.083793
v -5.341956 7.344934 -4.543842
v -5.341956 -7.661563 -4.543842
v 4.250613 9.023292 -4.543842
v -4.377023 9.023292 -4.543842
v -4.377023 9.023292 4.083793
v 4.250613 -9.339921 4.083793
v -4.377023 -9.339921 4.083793
v -4.377023 -9.339921 -4.543842
v -5.573033 -9.043740 5.279803
v -5.573033 8.727111 5.279803
v -5.739282 8.727111 4.878444
v 5.045263 9.425216 5.279803
v -5.171674 9.425216 5.279803
v -5.171674 8.727111 5.446052
v 5.446622 8.727111 5.279803
v 5.446622 -9.043740 5.279803
v 5.612871 -9.043740 4.878444
v -5.171674 -9.741845 5.279803
v 5.045263 -9.741845 5.279803
v 5.045263 -9.043740 5.446052
v 5.446622 9.425216 4.878444
v 5.446622 9.425216 -5.338493
v 5.045263 9.714381 -5.338493
v 5.446622 -9.043740 -5.739852
v 5.446622 8.727111 -5.739852
v 5.612871 8.727111 -5.338493
v 5.446622 -9.741845 -5.338493
v 5.446622 -9.741845 4.878444
v 5.045263 -10.031010 4.878444
v -5.171674 9.425216 -5.739852
v 5.045263 9.425216 -5.739852
v 5.045263 8.727111 -5.906101
v -5.573033 8.727111 -5.739852
v -5.573033 -9.043740 -5.739852
v -5.739282 -9.043740 -5.338493
v 5.045263 -9.741845 -5.739852
v -5.171674 -9.741845 -5.739852
v -5.171674 -9.043740 -5.906101
v -5.573033 9.425216 -5.338493
v -5.573033 9.425216 4.878444
v -5.171674 9.714381 4.878444
v -5.573033 -9.741845 4.878444
v -5.573033 -9.741845 -5.338493
v -5.171674 -10.031010 -5.338493
v -5.511550 -9.634905 -5.678369
v -5.739282 -9.043740 4.878444
v -5.511550 -9.634905 5.218320
v 5.385139 -9.634905 5.218320
v 5.612871 -9.043740 -5.338493
v 5.385139 -9.634905 -5.678369
v -5.171674 8.727111 -5.906101
v -5.573033 8.727111 -5.739852
v -5.511550 9.318275 -5.678369
v -5.511550 9.318275 5.218320
v 5.045263 9.714381 4.878444
v 5.385139 9.318275 5.218320
v 5.385139 9.318275 -5.678369
v -5.739282 -9.043740 -5.338493
v -5.573033 -9.043740 -5.739852
v -5.171674 -9.043740 5.446052
v -5.573033 -9.043740 5.279803
v -5.171674 -10.031010 4.878444
v 5.612871 -9.043740 4.878444
v 5.446622 -9.043740 5.279803
v 5.045263 -9.043740 -5.906101
v 5.446622 -9.043740 -5.739852
v 5.045263 -10.031010 -5.338493
v -5.171674 9.714381 -5.338493
v -5.739282 8.727111 -5.338493
v -5.739282 8.727111 4.878444
v -5.573033 8.727111 5.279803
v 5.612871 8.727111 4.878444
v 5.045263 8.727111 5.446052
v 5.446622 8.727111 5.279803
v 5.612871 8.727111 -5.338493
v 5.446622 8.727111 -5.739852
v -5.171674 -9.043740 5.446052
v -5.171674 8.727111 5.446052
v 5.045263 8.727111 5.446052
v 5.045263 -9.043740 5.446052
v 5.045263 -9.043740 -5.906101
v 5.045263 8.727111 -5.906101
v -5.171674 8.727111 -5.906101
v -5.171674 -9.043740 -5.906101
v -5.573033 -9.043740 -5.739852
v 4.250613 -7.661563 5.446052
v -4.377023 -7.661563 5.446052
v 4.250613 7.344934 5.446052
v -4.377023 7.344934 5.446052
v 5.612871 -7.661563 -4.543842
v 5.612871 -7.661563 4.083793
v 5.612871 7.344934 -4.543842
v 5.612871 -9.043740 -5.338493
v 5.612871 7.344934 4.083793
v 5.612871 8.727111 4.878444
v -4.377023 -7.661563 -5.906101
v 4.250613 -7.661563 -5.906101
v -4.377023 7.344934 -5.906101
v 4.250613 7.344934 -5.906101
v -5.739282 -7.661563 4.083793
v -5.739282 -7.661563 -4.543842
v -5.739282 -9.043740 -5.338493
v -5.739282 7.344934 4.083793
v -5.739282 -9.043740 4.878444
v -5.739282 7.344934 -4.543842
v -5.739282 8.727111 -5.338493
v 4.250613 9.714381 4.083793
v -4.377023 9.714381 4.083793
v 4.250613 9.714381 -4.543842
v -4.377023 9.714381 -4.543842
v 4.250613 -10.031010 -4.543842
v -4.377023 -10.031010 -4.543842
v 4.250613 -10.031010 4.083793
v -4.377023 -10.031010 4.083793
v 4.250613 -7.661563 5.048727
v -4.377023 -7.661563 5.048727
v -4.377023 -7.661563 5.446052
v 4.250613 7.344934 5.048727
v 4.250613 -7.661563 5.048727
v 4.250613 -7.661563 5.446052
v -4.377023 7.344934 5.048727
v 4.250613 7.344934 5.048727
v 4.250613 7.344934 5.446052
v -4.377023 -7.661563 5.048727
v -4.377023 7.344934 5.048727
v -4.377023 7.344934 5.446052
v 5.215545 -7.661563 -4.543842
v 5.215545 -7.661563 4.083793
v 5.612871 -7.661563 4.083793
v 5.215545 7.344934 -4.543842
v 5.215545 -7.661563 -4.543842
v 5.612871 -7.661563 -4.543842
v 5.215545 7.344934 4.083793
v 5.215545 7.344934 -4.543842
v 5.612871 7.344934 -4.543842
v 5.215545 -7.661563 4.083793
v 5.215545 7.344934 4.083793
v 5.612871 7.344934 4.083793
v -4.377023 -7.661563 -5.508775
v 4.250613 -7.661563 -5.508775
v 4.250613 -7.661563 -5.906101
v -4.377023 7.344934 -5.508775
v -4.377023 -7.661563 -5.508775
v -4.377023 -7.661563 -5.906101
v 4.250613 7.344934 -5.508775
v -4.377023 7.344934 -5.508775
v -4.377023 7.344934 -5.906101
v 4.250613 -7.661563 -5.508775
v 4.250613 7.344934 -5.508775
v 4.250613 7.344934 -5.906101
v -5.341956 -7.661563 4.083793
v -5.341956 -7.661563 -4.543842
v -5.739282 -7.661563 -4.543842
v -5.341956 7.344934 4.083793
v -5.341956 -7.661563 4.083793
v -5.739282 -7.661563 4.083793
v -5.341956 7.344934 -4.543842
v -5.341956 7.344934 4.083793
v -5.739282 7.344934 4.083793
v -5.341956 -7.661563 -4.543842
v -5.341956 7.344934 -4.543842
v -5.739282 7.344934 -4.543842
v 4.250613 9.023292 4.083793
v -4.377023 9.023292 4.083793
v -4.377023 9.714381 4.083793
v 4.250613 9.023292 -4.543842
v 4.250613 9.023292 4.083793
v 4.250613 9.714381 4.083793
v -4.377023 9.023292 -4.543842
v 4.250613 9.023292 -4.543842
v 4.250613 9.714381 -4.543842
v -4.377023 9.023292 4.083793
v -4.377023 9.023292 -4.543842
v -4.377023 9.714381 -4.543842
v 4.250613 -9.339921 -4.543842
v -4.377023 -9.339921 -4.543842
v -4.377023 -10.031010 -4.543842
v 4.250613 -9.339921 4.083793
v 4.250613 -9.339921 -4.543842
v 4.250613 -10.031010 -4.543842
v -4.377023 -9.339921 4.083793
v 4.250613 -9.339921 4.083793
v 4.250613 -10.031010 4.083793
v -4.377023 -9.339921 -4.543842
v -4.377023 -9.339921 4.083793
v -4.377023 -10.031010 4.083793
v 5.115920 -6.362475 5.294562
v 5.115920 -6.362475 4.815581
v 3.682303 -8.944194 5.294562
v 5.445074 -9.210486 3.403640
v 4.966093 -9.210486 3.403640
v 5.445074 -6.716921 4.887939
v -5.596694 -9.210486 -3.780654
v -5.117713 -9.210486 -3.780654
v -5.596694 -6.716921 -5.264953
v -5.267587 9.588039 -3.780587
v -5.267587 8.754924 -3.780587
v -3.833989 9.588039 -5.264905
v -5.267587 -9.870696 3.403573
v -5.267587 -9.037580 3.403573
v -3.833989 -9.870696 4.887891
v 5.115920 6.045846 -5.747205
v 5.115920 6.045846 -5.268224
v 3.682303 8.627565 -5.747205
v 4.250613 -7.661563 5.048727
v 5.215545 -7.661563 -4.543842
v -4.377023 -7.661563 -5.508775
v -5.341956 -7.661563 4.083793
v 4.250613 9.023292 4.083793
v 4.250613 -9.339921 -4.543842
v -5.739282 8.727111 -5.338493
v -5.573033 8.727111 -5.739852
v 4.250613 -7.661563 5.446052
v 4.250613 7.344934 5.446052
v -4.377023 7.344934 5.446052
v -4.377023 -7.661563 5.446052
v 5.612871 -7.661563 -4.543842
v 5.612871 7.344934 -4.543842
v 5.612871 7.344934 4.083793
v 5.612871 -7.661563 4.083793
v -4.377023 -7.661563 -5.906101
v -4.377023 7.344934 -5.906101
v 4.250613 7.344934 -5.906101
v 4.250613 -7.661563 -5.906101
v -5.739282 -7.661563 4.083793
v -5.739282 7.344934 4.083793
v -5.739282 7.344934 -4.543842
v -5.739282 -7.661563 -4.543842
v 4.250613 9.714381 4.083793
v 4.250613 9.714381 -4.543842
v -4.377023 9.714381 -4.543842
v -4.377023 9.714381 4.083793
v 4.250613 -10.031010 -4.543842
v 4.250613 -10.031010 4.083793
v -4.377023 -10.031010 4.083793
v -4.377023 -10.031010 -4.543842
vn -0.0000 -0.0000 1.0000
vn 0.8593 0.5115 -0.0000
vn -0.8593 -0.5115 -0.0000
vn 1.0000 -0.0000 -0.0000
vn -0.0000 -0.4855 -0.8743
vn -0.0000 0.4855 0.8743
vn -1.0000 -0.0000 -0.0000
vn -0.0000 -0.4855 0.8743
vn -0.0000 0.4855 -0.8743
vn -0.0000 1.0000 -0.0000
vn -0.6947 -0.0000 0.7193
vn 0.6947 -0.0000 -0.7193
vn -0.0000 -1.0000 -0.0000
vn -0.6947 -0.0000 -0.7193
vn 0.6947 -0.0000 0.7193
vn -0.0000 -0.0000 -1.0000
vn 0.8593 -0.5115 -0.0000
vn -0.8593 0.5115 -0.0000
vn -0.7620 -0.0582 0.6450
vn -0.6450 0.0582 0.7620
vn -0.9813 0.0755 0.1771
vn 0.1249 0.4863 0.8648
vn -0.1249 0.6111 0.7816
vn -0.1280 0.1050 0.9862
vn 0.7620 0.0582 0.6450
vn 0.6450 -0.0582 0.7620
vn 0.9813 -0.0755 0.1771
vn -0.1249 -0.4863 0.8648
vn 0.1249 -0.6111 0.7816
vn 0.1280 -0.1050 0.9862
vn 0.7816 0.6111 0.1249
vn 0.8648 0.4863 -0.1249
vn 0.2779 0.9398 -0.1990
vn 0.7620 -0.0582 -0.6450
vn 0.6450 0.0582 -0.7620
vn 0.9813 0.0755 -0.1771
vn 0.7816 -0.6111 -0.1249
vn 0.8648 -0.4863 0.1249
vn 0.2779 -0.9398 0.1990
vn -0.1249 0.4863 -0.8648
vn 0.1249 0.6111 -0.7816
vn 0.1280 0.1050 -0.9862
vn -0.7620 0.0582 -0.6450
vn -0.6450 -0.0582 -0.7620
vn -0.9813 -0.0755 -0.1772
vn 0.1249 -0.4863 -0.8648
vn -0.1249 -0.6111 -0.7816
vn -0.1280 -0.1050 -0.9862
vn -0.7816 0.6111 -0.1249
vn -0.8648 0.4863 0.1249
vn -0.2779 0.9398 0.1990
vn -0.7816 -0.6111 0.1249
vn -0.8648 -0.4863 -0.1249
vn -0.2779 -0.9398 -0.1990
vn -0.6397 -0.4263 -0.6397
vn -0.9862 -0.1050 0.1280
vn -0.6397 -0.4263 0.6397
vn 0.6397 -0.4263 0.6397
vn 0.9862 -0.1050 -0.1280
vn 0.6397 -0.4262 -0.6397
vn -0.1771 0.0755 -0.9813
vn -0.6397 0.4263 -0.6397
vn -0.6397 0.4263 0.6397
vn 0.1990 0.9398 0.2779
vn 0.6397 0.4263 0.6397
vn 0.6397 0.4263 -0.6397
vn -0.9813 -0.0755 -0.1771
vn -0.1771 -0.0755 0.9813
vn -0.1990 -0.9398 0.2779
vn 0.1771 -0.0755 -0.9813
vn 0.1990 -0.9398 -0.2779
vn -0.1990 0.9398 -0.2779
vn -0.9862 0.1050 -0.1280
vn 0.9862 0.1050 0.1280
vn 0.1771 0.0755 0.9813
vn -0.9862 0.1050 -0.1281
vt 0.960773 0.297311
vt 0.989119 0.313772
vt 0.989289 0.508542
vt 0.955456 0.297316
vt 0.960943 0.492081
vt 0.994436 0.313767
vt 0.994606 0.508537
vt 0.055872 0.763408
vt 0.083779 0.747323
vt 0.082967 0.945525
vt 0.050555 0.763386
vt 0.055060 0.961610
vt 0.089096 0.747345
vt 0.088284 0.945546
vt 0.989223 0.092232
vt 0.961436 0.075939
vt 0.960773 0.274143
vt 0.994539 0.092250
vt 0.988560 0.290436
vt 0.956119 0.075922
vt 0.955456 0.274125
vt 0.768588 0.142115
vt 0.745682 0.142119
vt 0.745658 0.003614
vt 0.777836 0.142113
vt 0.768564 0.003610
vt 0.736434 0.142120
vt 0.736410 0.003616
vt 0.697399 0.142078
vt 0.720305 0.141974
vt 0.719676 0.003471
vt 0.688152 0.142120
vt 0.696770 0.003575
vt 0.729553 0.141932
vt 0.728923 0.003429
vt 0.960969 0.726680
vt 0.989289 0.710174
vt 0.989145 0.515404
vt 0.955652 0.726684
vt 0.960825 0.531910
vt 0.994606 0.710170
vt 0.994462 0.515399
vt 0.283408 0.023659
vt 0.379338 0.023943
vt 0.379126 0.190756
vt 0.153028 0.022660
vt 0.249159 0.023020
vt 0.248748 0.189855
vt 0.021426 0.022396
vt 0.118088 0.021927
vt 0.119063 0.189360
vt 0.412975 0.024181
vt 0.509048 0.023478
vt 0.510608 0.190863
vt 0.560994 0.034608
vt 0.562848 0.123483
vt 0.646993 0.121007
vt 0.383615 0.545525
vt 0.382967 0.631937
vt 0.472130 0.634841
vt 0.396518 0.209574
vt 0.396145 0.005790
vt 0.401260 0.005849
vt 0.670379 0.019967
vt 0.671436 0.139713
vt 0.680665 0.143294
vt 0.266411 0.004993
vt 0.265755 0.208505
vt 0.260505 0.208380
vt 0.362649 0.648973
vt 0.359837 0.528359
vt 0.350279 0.524469
vt 0.665495 0.015071
vt 0.545787 0.012937
vt 0.546483 0.018843
vt 0.135919 0.207751
vt 0.135655 0.003796
vt 0.141047 0.003966
vt 0.488644 0.522677
vt 0.364943 0.523182
vt 0.365719 0.529091
vt 0.539111 0.141008
vt 0.540594 0.018004
vt 0.531106 0.013889
vt 0.649432 0.549058
vt 0.649640 0.746312
vt 0.644818 0.746318
vt 0.493537 0.527796
vt 0.491435 0.649436
vt 0.500761 0.653540
vt 0.544239 0.146023
vt 0.666548 0.144759
vt 0.665695 0.139017
vt 0.367626 0.653791
vt 0.486297 0.654440
vt 0.485605 0.648592
vt 0.490633 0.653768
vt 0.363941 0.662690
vt 0.363438 0.653123
vt 0.360544 0.523949
vt 0.492733 0.513532
vt 0.492933 0.523487
vt 0.529918 0.144987
vt 0.534231 0.151122
vt 0.539910 0.145313
vt 0.670834 0.143985
vt 0.664747 0.020715
vt 0.669681 0.015755
vt 0.541395 0.013619
vt 0.490052 0.663830
vt 0.496332 0.659682
vt 0.353808 0.652894
vt 0.357997 0.658726
vt 0.368350 0.648102
vt 0.360899 0.513593
vt 0.354567 0.518066
vt 0.502843 0.524185
vt 0.498797 0.517926
vt 0.487742 0.528470
vt 0.544995 0.140163
vt 0.540448 0.155296
vt 0.670668 0.154009
vt 0.676711 0.149527
vt 0.669244 0.006079
vt 0.679478 0.016085
vt 0.675240 0.010113
vt 0.541979 0.003429
vt 0.535600 0.007636
vt 0.391125 0.209420
vt 0.391026 0.005737
vt 0.271655 0.005131
vt 0.271010 0.208617
vt 0.130794 0.207702
vt 0.130256 0.003647
vt 0.008988 0.003584
vt 0.011562 0.208465
vt 0.006548 0.208542
vt 0.280678 0.192635
vt 0.381522 0.193087
vt 0.281093 0.021350
vt 0.381609 0.021724
vt 0.150488 0.191792
vt 0.251067 0.192157
vt 0.150635 0.020321
vt 0.141047 0.207793
vt 0.251511 0.020825
vt 0.261160 0.004868
vt 0.020676 0.192292
vt 0.121335 0.191621
vt 0.018927 0.020038
vt 0.120507 0.019727
vt 0.411646 0.193621
vt 0.513110 0.193209
vt 0.523061 0.209620
vt 0.410707 0.021918
vt 0.401918 0.209708
vt 0.511226 0.021205
vt 0.520314 0.005066
vt 0.656751 0.029255
vt 0.657067 0.130889
vt 0.554211 0.026475
vt 0.555189 0.130163
vt 0.478917 0.536795
vt 0.478183 0.640968
vt 0.375753 0.538923
vt 0.376468 0.639446
vt 0.283032 0.190433
vt 0.152765 0.189565
vt 0.022861 0.190009
vt 0.414063 0.191416
vt 0.650744 0.035151
vt 0.468741 0.546816
vt 0.955626 0.492086
vt 0.049743 0.961588
vt 0.993876 0.290453
vt 0.777811 0.003609
vt 0.687522 0.003617
vt 0.955508 0.531914
vt 0.644610 0.549063
vt 0.003429 0.003429
s 0
usemtl crates
f 1/1/1 2/2/1 3/3/1
f 4/4/2 5/1/2 6/5/2
f 7/2/3 8/6/3 9/7/3
f 10/8/4 11/9/4 12/10/4
f 13/11/5 14/8/5 15/12/5
f 16/9/6 17/13/6 18/14/6
f 19/15/7 20/16/7 21/17/7
f 22/18/8 23/15/8 24/19/8
f 25/16/9 26/20/9 27/21/9
f 28/22/10 29/23/10 30/24/10
f 31/25/11 32/22/11 33/26/11
f 34/23/12 35/27/12 36/28/12
f 37/29/13 38/30/13 39/31/13
f 40/32/14 41/29/14 42/33/14
f 43/30/15 44/34/15 45/35/15
f 46/36/16 47/37/16 48/38/16
f 49/39/17 50/36/17 51/40/17
f 52/37/18 53/41/18 54/42/18
f 55/43/1 56/44/1 57/45/1
f 58/46/4 59/47/4 60/48/4
f 61/49/16 62/50/16 63/51/16
f 64/52/7 65/53/7 66/54/7
f 67/55/10 68/56/10 69/57/10
f 70/58/13 71/59/13 72/60/13
s 1
f 73/61/19 74/62/20 75/63/21
f 76/64/22 77/65/23 78/66/24
f 79/67/25 80/68/26 81/69/27
f 82/70/28 83/71/29 84/72/30
f 85/73/31 86/74/32 87/75/33
f 88/76/34 89/77/35 90/78/36
f 91/79/37 92/80/38 93/81/39
f 94/82/40 95/83/41 96/84/42
f 97/85/43 98/86/44 99/87/45
f 100/88/46 101/89/47 102/90/48
f 103/91/49 104/92/50 105/93/51
f 106/94/52 107/95/53 108/96/54
f 102/90/48 101/89/47 109/97/55
f 110/98/56 106/94/52 111/99/57
f 84/72/30 83/71/29 112/100/58
f 113/101/59 91/79/37 114/102/60
f 115/103/61 116/104/43 117/105/62
f 77/65/23 105/93/51 118/106/63
f 85/73/31 119/107/64 120/108/65
f 96/84/42 95/83/41 121/109/66
f 122/110/67 123/111/44 109/97/55
f 108/96/54 107/95/53 109/97/55
f 124/112/68 125/113/19 111/99/57
f 106/94/52 126/114/69 111/99/57
f 127/115/27 128/116/26 112/100/58
f 93/81/39 92/80/38 112/100/58
f 129/117/70 130/118/34 114/102/60
f 131/119/71 100/88/46 114/102/60
f 103/91/49 132/120/72 117/105/62
f 133/121/73 103/91/49 117/105/62
f 78/66/24 77/65/23 118/106/63
f 134/122/21 135/123/20 118/106/63
f 136/124/74 85/73/31 120/108/65
f 137/125/75 138/126/25 120/108/65
f 139/127/36 140/128/35 121/109/66
f 95/83/41 87/75/33 121/109/66
f 141/129/68 142/130/24 74/62/20
f 119/107/64 105/93/51 77/65/23
f 143/131/75 144/132/30 80/68/26
f 126/114/69 93/81/39 83/71/29
f 136/124/74 139/127/36 86/74/32
f 145/133/70 146/134/42 89/77/35
f 113/101/59 127/115/27 92/80/38
f 132/120/72 87/75/33 95/83/41
f 147/135/61 148/136/48 149/137/44
f 131/119/71 108/96/54 101/89/47
f 133/121/73 134/122/21 104/92/50
f 110/98/56 122/110/67 107/95/53
f 150/138/1 151/139/1 141/129/68
f 152/140/1 150/138/1 144/132/30
f 153/141/1 152/140/1 143/131/75
f 151/139/1 153/141/1 142/130/24
f 154/142/4 155/143/4 81/69/27
f 156/144/4 154/142/4 157/145/59
f 158/146/4 156/144/4 90/78/36
f 155/143/4 158/146/4 159/147/74
f 160/148/16 161/149/16 145/133/70
f 162/150/16 160/148/16 148/136/48
f 163/151/16 162/150/16 147/135/61
f 161/149/16 163/151/16 146/134/42
f 164/152/7 165/153/7 166/154/67
f 167/155/7 164/152/7 168/156/56
f 169/157/7 167/155/7 75/63/21
f 165/153/7 169/157/7 170/158/73
f 171/159/10 172/160/10 105/93/51
f 173/161/10 171/159/10 119/107/64
f 174/162/10 173/161/10 87/75/33
f 172/160/10 174/162/10 132/120/72
f 175/163/13 176/164/13 108/96/54
f 177/165/13 175/163/13 131/119/71
f 178/166/13 177/165/13 93/81/39
f 176/164/13 178/166/13 126/114/69
s 0
f 179/167/10 180/45/10 181/139/10
f 182/43/7 183/167/7 184/138/7
f 185/44/13 186/43/13 187/140/13
f 188/45/4 189/44/4 190/141/4
f 191/168/10 192/48/10 193/143/10
f 194/46/1 195/168/1 196/142/1
f 197/47/13 198/46/13 199/144/13
f 200/48/16 201/47/16 202/146/16
f 203/169/10 204/51/10 205/149/10
f 206/49/4 207/169/4 208/148/4
f 209/50/13 210/49/13 211/150/13
f 212/51/7 213/50/7 214/151/7
f 215/170/10 216/54/10 217/153/10
f 218/52/16 219/170/16 220/152/16
f 221/53/13 222/52/13 223/155/13
f 224/54/1 225/53/1 226/157/1
f 227/171/16 228/57/16 229/160/16
f 230/55/7 231/171/7 232/159/7
f 233/56/1 234/55/1 235/161/1
f 236/57/4 237/56/4 238/162/4
f 239/172/1 240/60/1 241/164/1
f 242/58/7 243/172/7 244/163/7
f 245/59/16 246/58/16 247/165/16
f 248/60/4 249/59/4 250/166/4
s 1
f 126/114/69 82/70/28 111/99/57
f 112/100/58 83/71/29 93/81/39
f 114/102/60 91/79/37 131/119/71
f 109/97/55 101/89/47 108/96/54
f 87/75/33 86/74/32 121/109/66
f 132/120/72 94/82/40 117/105/62
f 105/93/51 104/92/50 118/106/63
f 119/107/64 76/64/22 120/108/65
s 0
f 251/5/1 1/1/1 3/3/1
f 252/173/2 4/4/2 6/5/2
f 253/3/3 7/2/3 9/7/3
f 254/12/4 10/8/4 12/10/4
f 255/174/5 13/11/5 15/12/5
f 256/10/6 16/9/6 18/14/6
f 257/19/7 19/15/7 21/17/7
f 258/175/8 22/18/8 24/19/8
f 259/17/9 25/16/9 27/21/9
f 260/26/10 28/22/10 30/24/10
f 261/176/11 31/25/11 33/26/11
f 262/24/12 34/23/12 36/28/12
f 263/33/13 37/29/13 39/31/13
f 264/177/14 40/32/14 42/33/14
f 265/31/15 43/30/15 45/35/15
f 266/40/16 46/36/16 48/38/16
s 1
f 267/178/17 49/39/17 51/40/17
s 0
f 268/38/18 52/37/18 54/42/18
f 269/167/1 55/43/1 57/45/1
f 270/168/4 58/46/4 60/48/4
f 271/169/16 61/49/16 63/51/16
f 272/170/7 64/52/7 66/54/7
f 273/171/10 67/55/10 69/57/10
f 274/172/13 70/58/13 72/60/13
s 1
f 168/156/56 73/61/19 75/63/21
f 137/125/75 76/64/22 78/66/24
f 159/147/74 79/67/25 81/69/27
f 124/112/68 82/70/28 84/72/30
f 119/107/64 85/73/31 87/75/33
f 157/145/59 88/76/34 90/78/36
f 131/119/71 91/79/37 93/81/39
f 115/103/61 94/82/40 96/84/42
f 275/179/76 97/85/43 99/87/45
f 129/117/70 100/88/46 102/90/48
f 132/120/72 103/91/49 105/93/51
f 126/114/69 106/94/52 108/96/54
f 123/111/44 102/90/48 109/97/55
f 125/113/19 110/98/56 111/99/57
f 128/116/26 84/72/30 112/100/58
f 130/118/34 113/101/59 114/102/60
f 94/82/40 115/103/61 117/105/62
f 140/128/35 96/84/42 121/109/66
f 107/95/53 122/110/67 109/97/55
f 82/70/28 124/112/68 111/99/57
f 92/80/38 127/115/27 112/100/58
f 100/88/46 129/117/70 114/102/60
f 116/104/43 133/121/73 117/105/62
f 135/123/20 78/66/24 118/106/63
f 104/92/50 134/122/21 118/106/63
f 138/126/25 136/124/74 120/108/65
f 76/64/22 137/125/75 120/108/65
f 86/74/32 139/127/36 121/109/66
f 73/61/19 141/129/68 74/62/20
f 76/64/22 119/107/64 77/65/23
f 79/67/25 143/131/75 80/68/26
f 82/70/28 126/114/69 83/71/29
f 85/73/31 136/124/74 86/74/32
f 88/76/34 145/133/70 89/77/35
f 91/79/37 113/101/59 92/80/38
f 94/82/40 132/120/72 95/83/41
f 276/180/43 147/135/61 149/137/44
f 100/88/46 131/119/71 101/89/47
f 103/91/49 133/121/73 104/92/50
f 106/94/52 110/98/56 107/95/53
f 144/132/30 150/138/1 141/129/68
f 143/131/75 152/140/1 144/132/30
f 142/130/24 153/141/1 143/131/75
f 141/129/68 151/139/1 142/130/24
f 157/145/59 154/142/4 81/69/27
f 90/78/36 156/144/4 157/145/59
f 159/147/74 158/146/4 90/78/36
f 81/69/27 155/143/4 159/147/74
f 148/136/48 160/148/16 145/133/70
f 147/135/61 162/150/16 148/136/48
f 146/134/42 163/151/16 147/135/61
f 145/133/70 161/149/16 146/134/42
f 168/156/56 164/152/7 166/154/67
f 75/63/21 167/155/7 168/156/56
f 170/158/73 169/157/7 75/63/21
f 166/154/67 165/153/7 170/158/73
f 119/107/64 171/159/10 105/93/51
f 87/75/33 173/161/10 119/107/64
f 132/120/72 174/162/10 87/75/33
f 105/93/51 172/160/10 132/120/72
f 131/119/71 175/163/13 108/96/54
f 93/81/39 177/165/13 131/119/71
f 126/114/69 178/166/13 93/81/39
f 108/96/54 176/164/13 126/114/69
s 0
f 277/138/10 179/167/10 181/139/10
f 278/140/7 182/43/7 184/138/7
f 279/141/13 185/44/13 187/140/13
f 280/139/4 188/45/4 190/141/4
f 281/142/10 191/168/10 193/143/10
f 282/144/1 194/46/1 196/142/1
f 283/146/13 197/47/13 199/144/13
f 284/143/16 200/48/16 202/146/16
f 285/148/10 203/169/10 205/149/10
f 286/150/4 206/49/4 208/148/4
f 287/151/13 209/50/13 211/150/13
f 288/149/7 212/51/7 214/151/7
f 289/152/10 215/170/10 217/153/10
f 290/155/16 218/52/16 220/152/16
f 291/157/13 221/53/13 223/155/13
f 292/153/1 224/54/1 226/157/1
f 293/159/16 227/171/16 229/160/16
f 294/161/7 230/55/7 232/159/7
f 295/162/1 233/56/1 235/161/1
f 296/160/4 236/57/4 238/162/4
f 297/163/1 239/172/1 241/164/1
f 298/165/7 242/58/7 244/163/7
f 299/166/16 245/59/16 247/165/16
f 300/164/4 248/60/4 250/166/4
