# Blender 4.2.0
# www.blender.org
mtllib ladder.mtl
o Water_tower.013_Water_tower_0
v 2.144238 -0.011704 0.468292
v 1.536931 4.628461 0.507354
v 1.536931 4.628461 0.453112
v 2.144238 -0.011704 0.413063
v 2.144238 -0.011704 0.413063
v 1.536931 4.628461 0.453112
v 1.590740 4.635300 0.453112
v 2.188501 -0.011716 0.413063
v 2.188501 -0.011716 0.413063
v 1.590740 4.635300 0.453112
v 1.590740 4.635300 0.507354
v 2.188501 -0.011716 0.468292
v 2.188501 -0.011716 0.468292
v 1.590740 4.635300 0.507354
v 1.536931 4.628461 0.507354
v 2.144238 -0.011704 0.468292
v 2.144238 -0.011704 0.413063
v 2.188501 -0.011716 0.413063
v 2.188501 -0.011716 0.468292
v 2.144238 -0.011704 0.468292
v 1.590740 4.635300 0.453112
v 1.536931 4.628461 0.453112
v 1.536931 4.628461 0.507354
v 1.590740 4.635300 0.507354
v 2.144238 -0.011704 0.866716
v 1.536931 4.628461 0.826664
v 1.536931 4.628461 0.772422
v 2.144238 -0.011704 0.811488
v 2.144238 -0.011704 0.811488
v 1.536931 4.628461 0.772422
v 1.590740 4.635300 0.772422
v 2.188501 -0.011716 0.811488
v 2.188501 -0.011716 0.811488
v 1.590740 4.635300 0.772422
v 1.590740 4.635301 0.826664
v 2.188501 -0.011716 0.866716
v 2.188501 -0.011716 0.866716
v 1.590740 4.635301 0.826664
v 1.536931 4.628461 0.826664
v 2.144238 -0.011704 0.866716
v 2.144238 -0.011704 0.811488
v 2.188501 -0.011716 0.811488
v 2.188501 -0.011716 0.866716
v 2.144238 -0.011704 0.866716
v 1.590740 4.635300 0.772422
v 1.536931 4.628461 0.772422
v 1.536931 4.628461 0.826664
v 1.590740 4.635301 0.826664
vn -0.9915 -0.1298 -0.0000
vn -0.0007 0.0085 -1.0000
vn -0.0006 0.0086 -1.0000
vn 0.9918 0.1276 -0.0000
vn 0.0005 -0.0084 1.0000
vn 0.0005 -0.0083 1.0000
vn 0.0006 -0.0083 1.0000
vn 0.0007 -0.0083 1.0000
vn -0.0003 -1.0000 -0.0000
vn -0.1261 0.9920 -0.0000
vn 0.0007 -0.0083 -1.0000
vn 0.0005 -0.0083 -1.0000
vn 0.0006 -0.0083 -1.0000
vn -0.0011 0.0085 1.0000
vn -0.0005 0.0086 1.0000
vt 0.523775 0.470184
vt 0.523775 0.999756
vt 0.530021 0.999756
vt 0.530021 0.470184
vt 0.667051 0.439407
vt 0.161107 0.439407
vt 0.161107 0.445271
vt 0.667051 0.445271
vt 0.450653 0.999756
vt 0.450653 0.464917
vt 0.444462 0.464917
vt 0.444462 0.999756
vt 0.040835 0.439640
vt 0.040835 0.999756
vt 0.046132 0.999756
vt 0.046132 0.439640
vt 0.119385 0.127710
vt 0.124415 0.127710
vt 0.124415 0.121434
vt 0.119385 0.121434
vt 0.125549 0.107442
vt 0.119385 0.107442
vt 0.119385 0.113606
vt 0.125549 0.113606
vt 0.457677 0.999756
vt 0.457678 0.465547
vt 0.451486 0.465547
vt 0.451486 0.999756
vt 0.667163 0.446103
vt 0.161107 0.446103
vt 0.161107 0.451967
vt 0.667163 0.451967
vt 0.506226 0.469764
vt 0.506226 0.999756
vt 0.512475 0.999756
vt 0.512475 0.469764
vt 0.034708 0.439448
vt 0.034708 0.999756
vt 0.040003 0.999756
vt 0.040003 0.439448
vt 0.119385 0.134818
vt 0.124415 0.134818
vt 0.124415 0.128542
vt 0.119385 0.128542
vt 0.125549 0.120602
vt 0.125549 0.114438
vt 0.119385 0.114438
vt 0.119385 0.120602
s 0
usemtl Water_tower
f 1/1/1 2/2/1 3/3/1
f 1/1/1 3/3/1 4/4/1
f 5/5/2 6/6/2 7/7/2
s 1
f 5/5/3 7/7/3 8/8/3
s 0
f 9/9/4 10/10/4 11/11/4
f 9/9/4 11/11/4 12/12/4
s 1
f 13/13/5 14/14/6 15/15/7
f 13/13/5 15/15/7 16/16/8
s 0
f 17/17/9 18/18/9 19/19/9
f 17/17/9 19/19/9 20/20/9
f 21/21/10 22/22/10 23/23/10
f 21/21/10 23/23/10 24/24/10
f 25/25/1 26/26/1 27/27/1
f 25/25/1 27/27/1 28/28/1
s 1
f 29/29/11 30/30/12 31/31/13
f 29/29/11 31/31/13 32/32/13
s 0
f 33/33/4 34/34/4 35/35/4
f 33/33/4 35/35/4 36/36/4
f 37/37/14 38/38/14 39/39/14
s 1
f 37/37/15 39/39/15 40/40/15
s 0
f 41/41/9 42/42/9 43/43/9
f 41/41/9 43/43/9 44/44/9
f 45/45/10 46/46/10 47/47/10
f 45/45/10 47/47/10 48/48/10
o Water_tower.014_Water_tower_0
v 2.116422 0.528687 0.841939
v 2.111592 0.578539 0.838987
v 2.110944 0.569626 0.434111
v 2.120089 0.518864 0.436154
v 2.120089 0.518864 0.436154
v 2.110944 0.569626 0.434111
v 2.128309 0.572746 0.434111
v 2.137454 0.521983 0.436154
v 2.137454 0.521983 0.436154
v 2.128309 0.572746 0.434111
v 2.128957 0.581658 0.838987
v 2.133787 0.531807 0.841939
v 2.133787 0.531807 0.841939
v 2.128957 0.581658 0.838987
v 2.111592 0.578539 0.838987
v 2.116422 0.528687 0.841939
v 2.120089 0.518864 0.436154
v 2.137454 0.521983 0.436154
v 2.133787 0.531807 0.841939
v 2.116422 0.528687 0.841939
v 2.128309 0.572746 0.434111
v 2.110944 0.569626 0.434111
v 2.111592 0.578539 0.838987
v 2.128957 0.581658 0.838987
v 2.076296 0.845181 0.841939
v 2.072321 0.885276 0.841939
v 2.072321 0.885276 0.439848
v 2.076296 0.845181 0.439848
v 2.076296 0.845181 0.439848
v 2.072321 0.885276 0.439848
v 2.089686 0.888395 0.439848
v 2.093661 0.848301 0.439848
v 2.093661 0.848301 0.439848
v 2.089686 0.888395 0.439848
v 2.089686 0.888395 0.841939
v 2.093661 0.848301 0.841939
v 2.093661 0.848301 0.841939
v 2.089686 0.888395 0.841939
v 2.072321 0.885276 0.841939
v 2.076296 0.845181 0.841939
v 2.076296 0.845181 0.439848
v 2.093661 0.848301 0.439848
v 2.093661 0.848301 0.841939
v 2.076296 0.845181 0.841939
v 2.089686 0.888395 0.439848
v 2.072321 0.885276 0.439848
v 2.072321 0.885276 0.841939
v 2.089686 0.888395 0.841939
v 2.035597 1.160015 0.841939
v 2.031622 1.200109 0.841939
v 2.031622 1.200109 0.439848
v 2.035597 1.160014 0.439848
v 2.035597 1.160014 0.439848
v 2.031622 1.200109 0.439848
v 2.048987 1.203228 0.439848
v 2.052962 1.163134 0.439848
v 2.052962 1.163134 0.439848
v 2.048987 1.203228 0.439848
v 2.048987 1.203229 0.841939
v 2.052962 1.163134 0.841939
v 2.052962 1.163134 0.841939
v 2.048987 1.203229 0.841939
v 2.031622 1.200109 0.841939
v 2.035597 1.160015 0.841939
v 2.035597 1.160014 0.439848
v 2.052962 1.163134 0.439848
v 2.052962 1.163134 0.841939
v 2.035597 1.160015 0.841939
v 2.048987 1.203228 0.439848
v 2.031622 1.200109 0.439848
v 2.031622 1.200109 0.841939
v 2.048987 1.203229 0.841939
v 1.998690 1.453821 0.845583
v 1.992601 1.512348 0.841938
v 1.992601 1.512348 0.439848
v 1.999345 1.459891 0.439283
v 1.999345 1.459891 0.439283
v 1.992601 1.512348 0.439848
v 2.009966 1.515468 0.439848
v 2.016710 1.463011 0.439283
v 2.016710 1.463011 0.439283
v 2.009966 1.515468 0.439848
v 2.009966 1.515468 0.841938
v 2.016055 1.456941 0.845583
v 2.016055 1.456941 0.845583
v 2.009966 1.515468 0.841938
v 1.992601 1.512348 0.841938
v 1.998690 1.453821 0.845583
v 1.999345 1.459891 0.439283
v 2.016710 1.463011 0.439283
v 2.016055 1.456941 0.845583
v 1.998690 1.453821 0.845583
v 2.009966 1.515468 0.439848
v 1.992601 1.512348 0.439848
v 1.992601 1.512348 0.841938
v 2.009966 1.515468 0.841938
v 1.955818 1.788340 0.841938
v 1.950558 1.837991 0.840426
v 1.952100 1.842624 0.437476
v 1.955818 1.788340 0.439848
v 1.955818 1.788340 0.439848
v 1.952100 1.842624 0.437476
v 1.969465 1.845744 0.437476
v 1.973183 1.791459 0.439848
v 1.973183 1.791459 0.439848
v 1.969465 1.845744 0.437476
v 1.967923 1.841110 0.840426
v 1.973183 1.791460 0.841938
v 1.973183 1.791460 0.841938
v 1.967923 1.841110 0.840426
v 1.950558 1.837991 0.840426
v 1.955818 1.788340 0.841938
v 1.955818 1.788340 0.439848
v 1.973183 1.791459 0.439848
v 1.973183 1.791460 0.841938
v 1.955818 1.788340 0.841938
v 1.969465 1.845744 0.437476
v 1.952100 1.842624 0.437476
v 1.950558 1.837991 0.840426
v 1.967923 1.841110 0.840426
v 1.914716 2.103273 0.841938
v 1.910741 2.143367 0.841938
v 1.910741 2.143367 0.439848
v 1.914716 2.103273 0.439848
v 1.914716 2.103273 0.439848
v 1.910741 2.143367 0.439848
v 1.928106 2.146487 0.439848
v 1.932081 2.106392 0.439848
v 1.932081 2.106392 0.439848
v 1.928106 2.146487 0.439848
v 1.928106 2.146487 0.841938
v 1.932081 2.106392 0.841938
v 1.932081 2.106392 0.841938
v 1.928106 2.146487 0.841938
v 1.910741 2.143367 0.841938
v 1.914716 2.103273 0.841938
v 1.914716 2.103273 0.439848
v 1.932081 2.106392 0.439848
v 1.932081 2.106392 0.841938
v 1.914716 2.103273 0.841938
v 1.928106 2.146487 0.439848
v 1.910741 2.143367 0.439848
v 1.910741 2.143367 0.841938
v 1.928106 2.146487 0.841938
v 1.874991 2.415167 0.841938
v 1.871016 2.455261 0.841938
v 1.879795 2.423473 0.432224
v 1.882713 2.373455 0.434310
v 1.882713 2.373455 0.434310
v 1.879795 2.423473 0.432224
v 1.897159 2.426593 0.432224
v 1.900078 2.376575 0.434310
v 1.900078 2.376575 0.434310
v 1.897159 2.426593 0.432224
v 1.888381 2.458381 0.841938
v 1.892356 2.418286 0.841938
v 1.892356 2.418286 0.841938
v 1.888381 2.458381 0.841938
v 1.871016 2.455261 0.841938
v 1.874991 2.415167 0.841938
v 1.882713 2.373455 0.434310
v 1.900078 2.376575 0.434310
v 1.892356 2.418286 0.841938
v 1.874991 2.415167 0.841938
v 1.897159 2.426593 0.432224
v 1.879795 2.423473 0.432224
v 1.871016 2.455261 0.841938
v 1.888381 2.458381 0.841938
v 1.834480 2.730076 0.841938
v 1.830505 2.770170 0.841938
v 1.830505 2.770170 0.439848
v 1.834480 2.730076 0.439848
v 1.834480 2.730076 0.439848
v 1.830505 2.770170 0.439848
v 1.847870 2.773290 0.439848
v 1.851845 2.733195 0.439848
v 1.851845 2.733195 0.439848
v 1.847870 2.773290 0.439848
v 1.847870 2.773290 0.841938
v 1.851845 2.733195 0.841938
v 1.851845 2.733195 0.841938
v 1.847870 2.773290 0.841938
v 1.830505 2.770170 0.841938
v 1.834480 2.730076 0.841938
v 1.834480 2.730076 0.439848
v 1.851845 2.733195 0.439848
v 1.851845 2.733195 0.841938
v 1.834480 2.730076 0.841938
v 1.847870 2.773290 0.439848
v 1.830505 2.770170 0.439848
v 1.830505 2.770170 0.841938
v 1.847870 2.773290 0.841938
v 1.793966 3.043157 0.841938
v 1.789991 3.083252 0.841938
v 1.789991 3.083252 0.439848
v 1.793966 3.043157 0.439848
v 1.793966 3.043157 0.439848
v 1.789991 3.083252 0.439848
v 1.807356 3.086371 0.439848
v 1.811331 3.046277 0.439848
v 1.811331 3.046277 0.439848
v 1.807356 3.086371 0.439848
v 1.807356 3.086371 0.841938
v 1.811331 3.046277 0.841938
v 1.811331 3.046277 0.841938
v 1.807356 3.086371 0.841938
v 1.789991 3.083252 0.841938
v 1.793966 3.043157 0.841938
v 1.793966 3.043157 0.439848
v 1.811331 3.046277 0.439848
v 1.811331 3.046277 0.841938
v 1.793966 3.043157 0.841938
v 1.807356 3.086371 0.439848
v 1.789991 3.083252 0.439848
v 1.789991 3.083252 0.841938
v 1.807356 3.086371 0.841938
v 1.753980 3.357724 0.841938
v 1.750005 3.397819 0.841938
v 1.750005 3.397819 0.439848
v 1.753980 3.357724 0.439848
v 1.753980 3.357724 0.439848
v 1.750005 3.397819 0.439848
v 1.767370 3.400939 0.439848
v 1.771345 3.360844 0.439848
v 1.771345 3.360844 0.439848
v 1.767370 3.400939 0.439848
v 1.767370 3.400939 0.841938
v 1.771345 3.360844 0.841938
v 1.771345 3.360844 0.841938
v 1.767370 3.400939 0.841938
v 1.750005 3.397819 0.841938
v 1.753980 3.357724 0.841938
v 1.753980 3.357724 0.439848
v 1.771345 3.360844 0.439848
v 1.771345 3.360844 0.841938
v 1.753980 3.357724 0.841938
v 1.767370 3.400939 0.439848
v 1.750005 3.397819 0.439848
v 1.750005 3.397819 0.841938
v 1.767370 3.400939 0.841938
v 1.713344 3.672941 0.841938
v 1.709369 3.713036 0.841938
v 1.709369 3.713036 0.439847
v 1.713344 3.672941 0.439847
v 1.713344 3.672941 0.439847
v 1.709369 3.713036 0.439847
v 1.726734 3.716156 0.439847
v 1.730709 3.676061 0.439847
v 1.730709 3.676061 0.439847
v 1.726734 3.716156 0.439847
v 1.726734 3.716156 0.841938
v 1.730709 3.676061 0.841938
v 1.730709 3.676061 0.841938
v 1.726734 3.716156 0.841938
v 1.709369 3.713036 0.841938
v 1.713344 3.672941 0.841938
v 1.713344 3.672941 0.439847
v 1.730709 3.676061 0.439847
v 1.730709 3.676061 0.841938
v 1.713344 3.672941 0.841938
v 1.726734 3.716156 0.439847
v 1.709369 3.713036 0.439847
v 1.709369 3.713036 0.841938
v 1.726734 3.716156 0.841938
v 1.674455 3.982213 0.841938
v 1.670480 4.022307 0.841938
v 1.670480 4.022307 0.439847
v 1.674455 3.982213 0.439847
v 1.674455 3.982213 0.439847
v 1.670480 4.022307 0.439847
v 1.687845 4.025427 0.439847
v 1.691820 3.985332 0.439847
v 1.691820 3.985332 0.439847
v 1.687845 4.025427 0.439847
v 1.687845 4.025427 0.841938
v 1.691820 3.985332 0.841938
v 1.691820 3.985332 0.841938
v 1.687845 4.025427 0.841938
v 1.670480 4.022307 0.841938
v 1.674455 3.982213 0.841938
v 1.674455 3.982213 0.439847
v 1.691820 3.985332 0.439847
v 1.691820 3.985332 0.841938
v 1.674455 3.982213 0.841938
v 1.687845 4.025427 0.439847
v 1.670480 4.022307 0.439847
v 1.670480 4.022307 0.841938
v 1.687845 4.025427 0.841938
v 1.635253 4.287737 0.843664
v 1.629571 4.339963 0.841938
v 1.629571 4.339962 0.439847
v 1.636520 4.287774 0.438761
v 1.636520 4.287774 0.438761
v 1.629571 4.339962 0.439847
v 1.646936 4.343082 0.439847
v 1.653885 4.290893 0.438761
v 1.653885 4.290893 0.438761
v 1.646936 4.343082 0.439847
v 1.646936 4.343083 0.841938
v 1.652618 4.290857 0.843664
v 1.652618 4.290857 0.843664
v 1.646936 4.343083 0.841938
v 1.629571 4.339963 0.841938
v 1.635253 4.287737 0.843664
v 1.636520 4.287774 0.438761
v 1.653885 4.290893 0.438761
v 1.652618 4.290857 0.843664
v 1.635253 4.287737 0.843664
v 1.646936 4.343082 0.439847
v 1.629571 4.339962 0.439847
v 1.629571 4.339963 0.841938
v 1.646936 4.343083 0.841938
vn -0.9905 -0.1376 -0.0005
vn 0.0070 -0.0389 -0.9992
vn 0.9905 0.1376 0.0005
vn -0.0104 0.0581 0.9983
vn 0.1768 -0.9839 0.0254
vn -0.1768 0.9840 -0.0214
vn -0.9951 -0.0987 -0.0000
vn -0.0000 -0.0000 -1.0000
vn 0.9951 0.0987 -0.0000
vn -0.0000 -0.0000 1.0000
vn 0.1768 -0.9842 -0.0000
vn -0.1768 0.9842 -0.0000
vn -0.9934 -0.1149 -0.0017
vn -0.0019 0.0105 -0.9999
vn 0.9934 0.1149 0.0017
vn -0.0110 0.0610 0.9981
vn 0.1768 -0.9841 -0.0144
vn -0.9963 -0.0861 -0.0024
vn -0.9963 -0.0862 -0.0024
vn 0.0077 -0.0431 -0.9990
vn 0.9963 0.0861 0.0024
vn 0.9963 0.0862 0.0024
vn -0.0054 0.0299 0.9995
vn -0.1768 0.9842 0.0106
vn -0.9970 -0.0766 -0.0132
vn 0.0074 -0.0412 -0.9991
vn 0.9970 0.0766 0.0132
vn 0.1759 -0.9790 0.1035
vn -0.1762 0.9811 -0.0799
vn -0.9928 -0.1201 -0.0016
vn -0.0037 0.0203 -0.9998
vn -0.0036 0.0203 -0.9998
vn 0.9928 0.1201 0.0016
vn -0.0058 0.0324 0.9995
vn 0.1768 -0.9842 0.0005
vt 0.000244 0.050996
vt 0.006071 0.050996
vt 0.006071 0.005280
vt 0.000244 0.005280
vt 0.087406 0.037178
vt 0.087406 0.043044
vt 0.089411 0.043044
vt 0.089411 0.037178
vt 0.013919 0.005280
vt 0.008091 0.005280
vt 0.008091 0.050996
vt 0.013919 0.050996
vt 0.090243 0.037352
vt 0.090243 0.043044
vt 0.092245 0.043044
vt 0.092245 0.037352
vt 0.015939 0.005280
vt 0.015939 0.050996
vt 0.030180 0.052990
vt 0.025602 0.052990
vt 0.025602 0.098683
vt 0.030180 0.098683
vt 0.047846 0.001072
vt 0.047846 0.005643
vt 0.049848 0.005643
vt 0.049848 0.001072
vt 0.019018 0.098683
vt 0.023597 0.098683
vt 0.023597 0.052990
vt 0.019018 0.052990
vt 0.123658 0.140645
vt 0.123658 0.145216
vt 0.125660 0.145216
vt 0.125660 0.140645
vt 0.017014 0.098683
vt 0.017014 0.052990
vt 0.046049 0.052167
vt 0.050627 0.052167
vt 0.050627 0.006475
vt 0.046049 0.006475
vt 0.031013 0.001070
vt 0.031013 0.005642
vt 0.033014 0.005642
vt 0.033014 0.001070
vt 0.057211 0.006475
vt 0.052632 0.006475
vt 0.052632 0.052167
vt 0.057211 0.052167
vt 0.121391 0.093598
vt 0.121391 0.089027
vt 0.119389 0.089027
vt 0.119389 0.093598
vt 0.059216 0.006475
vt 0.059216 0.052167
vt 0.081036 0.100619
vt 0.074497 0.100619
vt 0.074497 0.145216
vt 0.081036 0.145216
vt 0.004331 0.979224
vt 0.004331 0.985230
vt 0.006335 0.985230
vt 0.006335 0.979224
vt 0.065895 0.145216
vt 0.072434 0.145216
vt 0.072434 0.100619
vt 0.065895 0.100619
vt 0.006333 0.999756
vt 0.006333 0.993065
vt 0.004331 0.993065
vt 0.004331 0.999756
vt 0.063832 0.145216
vt 0.063832 0.100619
vt 0.015339 0.145216
vt 0.021273 0.145216
vt 0.021273 0.099515
vt 0.015339 0.099515
vt 0.006330 0.992233
vt 0.006330 0.986063
vt 0.004331 0.986063
vt 0.004331 0.992233
vt 0.029212 0.099515
vt 0.023278 0.099515
vt 0.023278 0.145216
vt 0.029212 0.145216
vt 0.121392 0.100099
vt 0.121392 0.094430
vt 0.119389 0.094430
vt 0.119389 0.100099
vt 0.031217 0.099515
vt 0.031217 0.145216
vt 0.045216 0.099523
vt 0.040638 0.099523
vt 0.040638 0.145216
vt 0.045216 0.145216
vt 0.033847 0.001070
vt 0.033847 0.005642
vt 0.035848 0.005642
vt 0.035848 0.001070
vt 0.034055 0.145216
vt 0.038633 0.145216
vt 0.038633 0.099523
vt 0.034055 0.099523
vt 0.119697 0.025950
vt 0.119697 0.030521
vt 0.121699 0.030521
vt 0.121699 0.025950
vt 0.032050 0.145216
vt 0.032050 0.099523
vt 0.014507 0.098585
vt 0.009377 0.098585
vt 0.009377 0.145216
vt 0.014507 0.145216
vt 0.119389 0.100931
vt 0.119389 0.106609
vt 0.121387 0.106609
vt 0.121387 0.100931
vt 0.002246 0.145216
vt 0.007376 0.145216
vt 0.007376 0.098585
vt 0.002246 0.098585
vt 0.027275 0.005632
vt 0.027275 0.001060
vt 0.025273 0.001060
vt 0.025273 0.005632
vt 0.000244 0.145216
vt 0.000244 0.098585
vt 0.030180 0.006464
vt 0.025602 0.006464
vt 0.025602 0.052157
vt 0.030180 0.052157
vt 0.052682 0.005643
vt 0.052682 0.001072
vt 0.050680 0.001072
vt 0.050680 0.005643
vt 0.019018 0.052157
vt 0.023597 0.052157
vt 0.023597 0.006464
vt 0.019019 0.006464
vt 0.024441 0.005632
vt 0.024441 0.001060
vt 0.022439 0.001060
vt 0.022439 0.005632
vt 0.017014 0.052157
vt 0.017014 0.006464
vt 0.044179 0.006474
vt 0.039601 0.006474
vt 0.039601 0.052166
vt 0.044179 0.052166
vt 0.028107 0.001060
vt 0.028107 0.005632
vt 0.030109 0.005632
vt 0.030109 0.001060
vt 0.033017 0.052166
vt 0.037596 0.052166
vt 0.037596 0.006474
vt 0.033017 0.006474
vt 0.047013 0.005643
vt 0.047013 0.001072
vt 0.045012 0.001072
vt 0.045012 0.005643
vt 0.031013 0.052166
vt 0.031013 0.006474
vt 0.046049 0.145216
vt 0.050627 0.145216
vt 0.050627 0.099524
vt 0.046049 0.099524
vt 0.005571 0.967007
vt 0.005571 0.971578
vt 0.007573 0.971578
vt 0.007573 0.967007
vt 0.057211 0.099524
vt 0.052632 0.099524
vt 0.052632 0.145216
vt 0.057211 0.145216
vt 0.021607 0.005632
vt 0.021607 0.001060
vt 0.019605 0.001060
vt 0.019605 0.005632
vt 0.059216 0.099524
vt 0.059216 0.145216
vt 0.046049 0.098692
vt 0.050627 0.098692
vt 0.050627 0.053000
vt 0.046049 0.053000
vt 0.036681 0.001070
vt 0.036681 0.005642
vt 0.038682 0.005642
vt 0.038682 0.001070
vt 0.057211 0.053000
vt 0.052632 0.053000
vt 0.052632 0.098692
vt 0.057211 0.098692
vt 0.039515 0.001070
vt 0.039515 0.005642
vt 0.041517 0.005642
vt 0.041517 0.001070
vt 0.059216 0.053000
vt 0.059216 0.098692
vt 0.032050 0.098691
vt 0.036628 0.098691
vt 0.036628 0.052998
vt 0.032050 0.052998
vt 0.016771 0.001060
vt 0.016771 0.005632
vt 0.018773 0.005632
vt 0.018773 0.001060
vt 0.043212 0.052998
vt 0.038633 0.052998
vt 0.038633 0.098691
vt 0.043212 0.098691
vt 0.121699 0.025118
vt 0.121699 0.020546
vt 0.119697 0.020546
vt 0.119697 0.025118
vt 0.045216 0.052998
vt 0.045216 0.098691
vt 0.016181 0.051828
vt 0.010214 0.051828
vt 0.010214 0.097753
vt 0.016181 0.097753
vt 0.005571 0.972410
vt 0.005571 0.978391
vt 0.007575 0.978391
vt 0.007575 0.972410
vt 0.002245 0.097753
vt 0.008213 0.097753
vt 0.008213 0.051828
vt 0.002245 0.051828
vt 0.007574 0.402415
vt 0.007574 0.396449
vt 0.005571 0.396449
vt 0.005571 0.402415
vt 0.000244 0.097753
vt 0.000244 0.051828
s 1
usemtl Water_tower
f 49/49/16 50/50/16 51/51/16
f 49/49/16 51/51/16 52/52/16
s 0
f 53/53/17 54/54/17 55/55/17
f 53/53/17 55/55/17 56/56/17
s 1
f 57/57/18 58/58/18 59/59/18
f 57/57/18 59/59/18 60/60/18
s 0
f 61/61/19 62/62/19 63/63/19
f 61/61/19 63/63/19 64/64/19
f 65/65/20 66/57/20 67/60/20
f 65/65/20 67/60/20 68/66/20
f 69/58/21 70/51/21 71/50/21
f 69/58/21 71/50/21 72/59/21
f 73/67/22 74/68/22 75/69/22
f 73/67/22 75/69/22 76/70/22
f 77/71/23 78/72/23 79/73/23
f 77/71/23 79/73/23 80/74/23
f 81/75/24 82/76/24 83/77/24
f 81/75/24 83/77/24 84/78/24
f 85/79/25 86/80/25 87/81/25
f 85/79/25 87/81/25 88/82/25
f 89/83/26 90/75/26 91/78/26
f 89/83/26 91/78/26 92/84/26
f 93/76/27 94/69/27 95/68/27
f 93/76/27 95/68/27 96/77/27
f 97/85/22 98/86/22 99/87/22
f 97/85/22 99/87/22 100/88/22
f 101/89/23 102/90/23 103/91/23
f 101/89/23 103/91/23 104/92/23
f 105/93/24 106/94/24 107/95/24
f 105/93/24 107/95/24 108/96/24
f 109/97/25 110/98/25 111/99/25
f 109/97/25 111/99/25 112/100/25
f 113/101/26 114/93/26 115/96/26
f 113/101/26 115/96/26 116/102/26
f 117/94/27 118/87/27 119/86/27
f 117/94/27 119/86/27 120/95/27
s 1
f 121/103/28 122/104/28 123/105/28
f 121/103/28 123/105/28 124/106/28
s 0
f 125/107/29 126/108/29 127/109/29
f 125/107/29 127/109/29 128/110/29
s 1
f 129/111/30 130/112/30 131/113/30
f 129/111/30 131/113/30 132/114/30
s 0
f 133/115/31 134/116/31 135/117/31
f 133/115/31 135/117/31 136/118/31
f 137/119/32 138/111/32 139/114/32
f 137/119/32 139/114/32 140/120/32
f 141/112/27 142/105/27 143/104/27
f 141/112/27 143/104/27 144/113/27
s 1
f 145/121/33 146/122/34 147/123/33
f 145/121/33 147/123/33 148/124/33
s 0
f 149/125/35 150/126/35 151/127/35
f 149/125/35 151/127/35 152/128/35
s 1
f 153/129/36 154/130/37 155/131/37
f 153/129/36 155/131/37 156/132/36
s 0
f 157/133/38 158/134/38 159/135/38
f 157/133/38 159/135/38 160/136/38
f 161/137/26 162/129/26 163/132/26
f 161/137/26 163/132/26 164/138/26
f 165/130/39 166/123/39 167/122/39
f 165/130/39 167/122/39 168/131/39
f 169/139/22 170/140/22 171/141/22
f 169/139/22 171/141/22 172/142/22
f 173/143/23 174/144/23 175/145/23
f 173/143/23 175/145/23 176/146/23
f 177/147/24 178/148/24 179/149/24
f 177/147/24 179/149/24 180/150/24
f 181/151/25 182/152/25 183/153/25
f 181/151/25 183/153/25 184/154/25
f 185/155/26 186/147/26 187/150/26
f 185/155/26 187/150/26 188/156/26
f 189/148/27 190/141/27 191/140/27
f 189/148/27 191/140/27 192/149/27
s 1
f 193/157/40 194/158/40 195/159/40
f 193/157/40 195/159/40 196/160/40
s 0
f 197/161/41 198/162/41 199/163/41
f 197/161/41 199/163/41 200/164/41
s 1
f 201/165/42 202/166/42 203/167/42
f 201/165/42 203/167/42 204/168/42
s 0
f 205/169/25 206/170/25 207/171/25
f 205/169/25 207/171/25 208/172/25
f 209/173/43 210/165/43 211/168/43
f 209/173/43 211/168/43 212/174/43
f 213/166/44 214/159/44 215/158/44
f 213/166/44 215/158/44 216/167/44
f 217/175/22 218/176/22 219/177/22
f 217/175/22 219/177/22 220/178/22
f 221/179/23 222/180/23 223/181/23
f 221/179/23 223/181/23 224/182/23
f 225/183/24 226/184/24 227/185/24
f 225/183/24 227/185/24 228/186/24
f 229/187/25 230/188/25 231/189/25
f 229/187/25 231/189/25 232/190/25
f 233/191/26 234/183/26 235/186/26
f 233/191/26 235/186/26 236/192/26
f 237/184/27 238/177/27 239/176/27
f 237/184/27 239/176/27 240/185/27
f 241/193/22 242/194/22 243/195/22
f 241/193/22 243/195/22 244/196/22
f 245/197/23 246/198/23 247/199/23
f 245/197/23 247/199/23 248/200/23
f 249/201/24 250/202/24 251/203/24
f 249/201/24 251/203/24 252/204/24
f 253/205/25 254/206/25 255/207/25
f 253/205/25 255/207/25 256/208/25
f 257/209/26 258/201/26 259/204/26
f 257/209/26 259/204/26 260/210/26
f 261/202/27 262/195/27 263/194/27
f 261/202/27 263/194/27 264/203/27
f 265/211/22 266/212/22 267/213/22
f 265/211/22 267/213/22 268/214/22
f 269/215/23 270/216/23 271/217/23
f 269/215/23 271/217/23 272/218/23
f 273/219/24 274/220/24 275/221/24
f 273/219/24 275/221/24 276/222/24
f 277/223/25 278/224/25 279/225/25
f 277/223/25 279/225/25 280/226/25
f 281/227/26 282/219/26 283/222/26
f 281/227/26 283/222/26 284/228/26
f 285/220/27 286/213/27 287/212/27
f 285/220/27 287/212/27 288/221/27
f 289/229/22 290/230/22 291/231/22
f 289/229/22 291/231/22 292/232/22
f 293/233/23 294/234/23 295/235/23
f 293/233/23 295/235/23 296/236/23
f 297/237/24 298/238/24 299/239/24
f 297/237/24 299/239/24 300/240/24
f 301/241/25 302/242/25 303/243/25
f 301/241/25 303/243/25 304/244/25
f 305/245/26 306/237/26 307/240/26
f 305/245/26 307/240/26 308/246/26
f 309/238/27 310/231/27 311/230/27
f 309/238/27 311/230/27 312/239/27
f 313/247/22 314/248/22 315/249/22
f 313/247/22 315/249/22 316/250/22
f 317/251/23 318/252/23 319/253/23
f 317/251/23 319/253/23 320/254/23
f 321/255/24 322/256/24 323/257/24
f 321/255/24 323/257/24 324/258/24
f 325/259/25 326/260/25 327/261/25
f 325/259/25 327/261/25 328/262/25
f 329/263/26 330/255/26 331/258/26
f 329/263/26 331/258/26 332/264/26
f 333/256/27 334/249/27 335/248/27
f 333/256/27 335/248/27 336/257/27
s 1
f 337/265/45 338/266/45 339/267/45
f 337/265/45 339/267/45 340/268/45
s 0
f 341/269/46 342/270/46 343/271/46
f 341/269/47 343/271/47 344/272/47
s 1
f 345/273/48 346/274/48 347/275/48
f 345/273/48 347/275/48 348/276/48
s 0
f 349/277/49 350/278/49 351/279/49
f 349/277/49 351/279/49 352/280/49
f 353/281/50 354/273/50 355/276/50
f 353/281/50 355/276/50 356/282/50
f 357/274/27 358/267/27 359/266/27
f 357/274/27 359/266/27 360/275/27
