# Blender 4.2.0
# www.blender.org
mtllib planks.mtl
o Water_tower.011_Water_tower_0
v 0.022963 6.370289 1.444903
v 0.022963 6.405987 1.444903
v 0.007770 6.405987 1.252837
v 0.007770 6.370289 1.252837
v 0.007770 6.370289 1.252837
v 0.007770 6.405987 1.252837
v 1.595584 6.405987 1.096036
v 1.595584 6.370289 1.096036
v 1.595584 6.370289 1.096036
v 1.595584 6.405987 1.096036
v 1.610777 6.405987 1.288101
v 1.610777 6.370289 1.288101
v 1.610777 6.370289 1.288101
v 1.610777 6.405987 1.288101
v 0.022963 6.405987 1.444903
v 0.022963 6.370289 1.444903
v 0.007770 6.370289 1.252837
v 1.595584 6.370289 1.096036
v 1.610777 6.370289 1.288101
v 0.022963 6.370289 1.444903
v 1.595584 6.405987 1.096036
v 0.007770 6.405987 1.252837
v 0.022963 6.405987 1.444903
v 1.610777 6.405987 1.288101
v -0.008032 6.405005 1.184037
v -0.008032 6.440703 1.184037
v -0.041728 6.440703 0.994236
v -0.041728 6.405005 0.994236
v -0.041728 6.405005 0.994236
v -0.041728 6.440703 0.994236
v 1.606276 6.442192 0.623981
v 1.606276 6.406493 0.623981
v 1.606276 6.406493 0.623981
v 1.606276 6.442192 0.623981
v 1.606276 6.442192 0.816750
v 1.606276 6.406494 0.816750
v 1.606276 6.406494 0.816750
v 1.606276 6.442192 0.816750
v -0.008032 6.440703 1.184037
v -0.008032 6.405005 1.184037
v -0.041728 6.405005 0.994236
v 1.606276 6.406493 0.623981
v 1.606276 6.406494 0.816750
v -0.008032 6.405005 1.184037
v 1.606276 6.442192 0.623981
v -0.041728 6.440703 0.994236
v -0.008032 6.440703 1.184037
v 1.606276 6.442192 0.816750
v -0.091486 6.370289 0.887304
v -0.091486 6.405987 0.887304
v -0.091486 6.405987 0.694536
v -0.091486 6.370288 0.694536
v -0.091486 6.370288 0.694536
v -0.091486 6.405987 0.694536
v 1.606276 6.405987 0.694536
v 1.606276 6.370288 0.694536
v 1.606276 6.370288 0.694536
v 1.606276 6.405987 0.694536
v 1.606276 6.405987 0.887304
v 1.606276 6.370289 0.887304
v 1.606276 6.370289 0.887304
v 1.606276 6.405987 0.887304
v -0.091486 6.405987 0.887304
v -0.091486 6.370289 0.887304
v -0.091486 6.370288 0.694536
v 1.606276 6.370288 0.694536
v 1.606276 6.370289 0.887304
v -0.091486 6.370289 0.887304
v 1.606276 6.405987 0.694536
v -0.091486 6.405987 0.694536
v -0.091486 6.405987 0.887304
v 1.606276 6.405987 0.887304
v -0.095997 6.370288 0.362960
v -0.095997 6.405987 0.362960
v -0.083273 6.396704 0.170612
v -0.083273 6.370288 0.170612
v -0.083273 6.370288 0.170612
v -0.083273 6.396704 0.170612
v 1.610787 6.405987 0.282681
v 1.610787 6.370288 0.282681
v 1.610787 6.370288 0.282681
v 1.610787 6.405987 0.282681
v 1.598062 6.405987 0.475029
v 1.598062 6.370288 0.475029
v 1.598062 6.370288 0.475029
v 1.598062 6.405987 0.475029
v -0.095997 6.405987 0.362960
v -0.095997 6.370288 0.362960
v -0.083273 6.370288 0.170612
v 1.610787 6.370288 0.282681
v 1.598062 6.370288 0.475029
v -0.095997 6.370288 0.362960
v 1.610787 6.405987 0.282681
v -0.083273 6.396704 0.170612
v -0.095997 6.405987 0.362960
v 1.598062 6.405987 0.475029
v 0.107018 6.406132 0.876805
v 0.107018 6.441830 0.876805
v -0.000627 6.432547 0.716892
v -0.000627 6.406131 0.716892
v -0.000627 6.406131 0.716892
v -0.000627 6.432547 0.716892
v 1.407771 6.437650 -0.231165
v 1.407771 6.401951 -0.231165
v 1.407771 6.401951 -0.231165
v 1.407771 6.437650 -0.231165
v 1.515416 6.437650 -0.071252
v 1.515416 6.401951 -0.071252
v 1.515416 6.401951 -0.071252
v 1.515416 6.437650 -0.071252
v 0.107018 6.441830 0.876805
v 0.107018 6.406132 0.876805
v -0.000627 6.406131 0.716892
v 1.407771 6.401951 -0.231165
v 1.515416 6.401951 -0.071252
v 0.107018 6.406132 0.876805
v 1.407771 6.437650 -0.231165
v -0.000627 6.432547 0.716892
v 0.107018 6.441830 0.876805
v 1.515416 6.437650 -0.071252
vn -0.9969 -0.0000 0.0789
vn -0.0983 -0.0000 -0.9952
vn 0.9969 -0.0000 -0.0789
vn 0.0983 -0.0000 0.9952
vn -0.0000 -1.0000 -0.0000
vn -0.0000 1.0000 -0.0000
vn -0.9846 -0.0000 0.1748
vn -0.2192 -0.0000 -0.9757
vn 1.0000 -0.0000 -0.0000
vn 0.2218 -0.0000 0.9751
vn 0.0009 -1.0000 -0.0000
vn 0.0009 -1.0000 -0.0001
vn -0.0009 1.0000 0.0002
vn -0.0009 1.0000 -0.0000
vn -1.0000 -0.0000 -0.0000
vn -0.0000 -0.0000 -1.0000
vn -0.0000 -0.0000 1.0000
vn -0.9978 -0.0000 -0.0660
vn 0.0660 -0.0000 -0.9978
vn 0.9978 -0.0000 0.0660
vn -0.0660 -0.0000 0.9978
vn -0.0011 0.9997 -0.0242
vn -0.8296 -0.0000 0.5584
vn -0.5584 -0.0000 -0.8296
vn 0.8296 -0.0000 -0.5584
vn 0.5584 -0.0000 0.8296
vn -0.0020 -1.0000 0.0014
vn -0.0137 0.9997 -0.0198
vt 0.086849 0.055121
vt 0.082792 0.055121
vt 0.082792 0.077014
vt 0.086849 0.077014
vt 0.860370 0.442151
vt 0.856314 0.442151
vt 0.856314 0.623449
vt 0.860370 0.623449
vt 0.082776 0.099741
vt 0.086832 0.099741
vt 0.086832 0.077847
vt 0.082776 0.077847
vt 0.830365 0.623449
vt 0.834422 0.623449
vt 0.834422 0.442151
vt 0.830365 0.442151
vt 0.808473 0.442151
vt 0.808473 0.623449
vt 0.019268 0.406241
vt 0.015211 0.406241
vt 0.015211 0.428146
vt 0.019268 0.428146
vt 0.395015 0.151148
vt 0.395015 0.155163
vt 0.584964 0.155163
vt 0.584964 0.151148
vt 0.005133 0.425153
vt 0.009190 0.425153
vt 0.009190 0.403247
vt 0.005133 0.403247
vt 0.584964 0.180855
vt 0.584964 0.176841
vt 0.395015 0.176841
vt 0.395015 0.180855
vt 0.395015 0.202533
vt 0.584964 0.202533
vt 0.085925 0.123311
vt 0.081869 0.123311
vt 0.081869 0.145216
vt 0.085925 0.145216
vt 0.193172 0.235978
vt 0.193172 0.231922
vt 0.000244 0.231922
vt 0.000244 0.235978
vt 0.086832 0.100573
vt 0.082776 0.100573
vt 0.082776 0.122479
vt 0.086832 0.122479
vt 0.000244 0.205959
vt 0.000244 0.210016
vt 0.193172 0.210016
vt 0.193172 0.205959
vt 0.193172 0.184054
vt 0.000244 0.184054
vt 0.000244 0.999756
vt 0.003499 0.999756
vt 0.003499 0.976004
vt 0.000244 0.976004
vt 0.394183 0.237528
vt 0.394183 0.233735
vt 0.201227 0.233735
vt 0.201227 0.237528
vt 0.000244 0.425153
vt 0.004301 0.425153
vt 0.004301 0.403247
vt 0.000244 0.403247
vt 0.201227 0.208034
vt 0.201227 0.211827
vt 0.394183 0.211827
vt 0.394183 0.208034
vt 0.394183 0.186125
vt 0.201227 0.186125
vt 0.086574 0.033845
vt 0.082792 0.033845
vt 0.082792 0.054288
vt 0.086574 0.054288
vt 0.592196 0.254768
vt 0.592196 0.250976
vt 0.399239 0.250976
vt 0.399239 0.254768
vt 0.010323 0.428146
vt 0.014379 0.428146
vt 0.014379 0.406240
vt 0.010323 0.406240
vt 0.399239 0.225275
vt 0.399239 0.229067
vt 0.592196 0.229067
vt 0.592196 0.225275
vt 0.592196 0.203366
vt 0.399239 0.203366
s 0
usemtl Water_tower
f 1/1/1 2/2/1 3/3/1
f 1/1/1 3/3/1 4/4/1
f 5/5/2 6/6/2 7/7/2
f 5/5/2 7/7/2 8/8/2
f 9/9/3 10/10/3 11/11/3
f 9/9/3 11/11/3 12/12/3
f 13/13/4 14/14/4 15/15/4
f 13/13/4 15/15/4 16/16/4
f 17/17/5 18/18/5 19/13/5
f 17/17/5 19/13/5 20/16/5
f 21/7/6 22/6/6 23/15/6
f 21/7/6 23/15/6 24/14/6
f 25/19/7 26/20/7 27/21/7
f 25/19/7 27/21/7 28/22/7
f 29/23/8 30/24/8 31/25/8
f 29/23/8 31/25/8 32/26/8
f 33/27/9 34/28/9 35/29/9
f 33/27/9 35/29/9 36/30/9
f 37/31/10 38/32/10 39/33/10
f 37/31/10 39/33/10 40/34/10
f 41/35/11 42/36/11 43/31/11
f 41/35/12 43/31/12 44/34/12
f 45/25/13 46/24/13 47/33/13
f 45/25/14 47/33/14 48/32/14
f 49/37/15 50/38/15 51/39/15
f 49/37/15 51/39/15 52/40/15
f 53/41/16 54/42/16 55/43/16
f 53/41/16 55/43/16 56/44/16
f 57/45/9 58/46/9 59/47/9
f 57/45/9 59/47/9 60/48/9
f 61/49/17 62/50/17 63/51/17
f 61/49/17 63/51/17 64/52/17
f 65/53/5 66/54/5 67/49/5
f 65/53/5 67/49/5 68/52/5
f 69/43/6 70/42/6 71/51/6
f 69/43/6 71/51/6 72/50/6
f 73/55/18 74/56/18 75/57/18
s 1
f 73/55/18 75/57/18 76/58/18
s 0
f 77/59/19 78/60/19 79/61/19
f 77/59/19 79/61/19 80/62/19
f 81/63/20 82/64/20 83/65/20
f 81/63/20 83/65/20 84/66/20
f 85/67/21 86/68/21 87/69/21
f 85/67/21 87/69/21 88/70/21
f 89/71/5 90/72/5 91/67/5
f 89/71/5 91/67/5 92/70/5
s 1
f 93/61/22 94/60/22 95/69/22
f 93/61/22 95/69/22 96/68/22
s 0
f 97/73/23 98/74/23 99/75/23
f 97/73/23 99/75/23 100/76/23
f 101/77/24 102/78/24 103/79/24
f 101/77/24 103/79/24 104/80/24
f 105/81/25 106/82/25 107/83/25
f 105/81/25 107/83/25 108/84/25
f 109/85/26 110/86/26 111/87/26
f 109/85/26 111/87/26 112/88/26
f 113/89/27 114/90/27 115/85/27
f 113/89/27 115/85/27 116/88/27
s 1
f 117/79/28 118/78/28 119/87/28
f 117/79/28 119/87/28 120/86/28
